{
	"asset":{
		"generator":"Khronos glTF Blender I/O v4.1.63",
		"version":"2.0"
	},
	"scene":0,
	"scenes":[
		{
			"name":"Scene",
			"nodes":[
				0
			]
		}
	],
	"nodes":[
		{
			"mesh":0,
			"name":"Lucy_3M_O10",
			"scale":[
				0.009999999776482582,
				0.009999999776482582,
				0.009999999776482582
			],
			"translation":[
				-7.438830852508545,
				0,
				0
			]
		}
	],
	"meshes":[
		{
			"name":"Lucy_3M_O10",
			"primitives":[
				{
					"attributes":{
						"POSITION":0,
						"NORMAL":1
					},
					"indices":2
				}
			]
		}
	],
	"accessors":[
		{
			"bufferView":0,
			"componentType":5126,
			"count":1264847,
			"max":[
				1155.5185546875,
				991.0703735351562,
				388.3660888671875
			],
			"min":[
				225.85403442382812,
				-605.885498046875,
				-145.30145263671875
			],
			"type":"VEC3"
		},
		{
			"bufferView":1,
			"componentType":5126,
			"count":1264847,
			"type":"VEC3"
		},
		{
			"bufferView":2,
			"componentType":5125,
			"count":7589058,
			"type":"SCALAR"
		}
	],
	"bufferViews":[
		{
			"buffer":0,
			"byteLength":15178164,
			"byteOffset":0,
			"target":34962
		},
		{
			"buffer":0,
			"byteLength":15178164,
			"byteOffset":15178164,
			"target":34962
		},
		{
			"buffer":0,
			"byteLength":30356232,
			"byteOffset":30356328,
			"target":34963
		}
	],
	"buffers":[
		{
			"byteLength":60712560,
			"uri":"lucy.bin"
		}
	]
}
